<svg viewBox="0 0 522 596" fill="none" xmlns="http://www.w3.org/2000/svg">
<path d="M73 227C73 116.543 162.543 27 273 27H285C395.457 27 485 116.543 485 227V583H73V227Z" fill="#E8EDFF"/>
<path d="M322.662 18.2523C341.404 14.3083 365.42 24.2239 380.562 34.4734C409.105 53.7937 438.269 89.3093 452.614 120.58C469.879 158.215 475.904 202.276 463.395 242.183C455.313 267.965 431.186 279.225 409.205 260.823C386.919 242.166 363.741 211.844 376.474 181.843C389.875 150.267 418.335 140.93 448.092 156.962C494.404 181.913 515.108 231.577 519.761 282.235C524.736 336.407 506.03 384.088 475.499 427.526" stroke="#3775EE" stroke-linecap="round" stroke-linejoin="round" stroke-dasharray="6 6"/>
<path d="M76.9443 43.6674C71.6509 43.1331 72.242 39.7578 75.4495 36.4588C81.6171 30.1151 90.1095 27.449 96.1931 27.0291C100.154 26.7557 102.832 28.4092 103.846 31.9749C104.623 34.7073 103.613 38.5962 101.19 42.6487C97.8742 48.1933 92.0029 54.4803 90.061 57.6343C89.9786 57.7675 89.89 57.9522 89.8029 58.1682C90.939 57.4966 92.211 56.5511 93.603 55.562C100.506 50.6575 108.592 43.2474 113.056 40.7455C114.258 40.0752 121.955 35.6512 125.242 35.315C128.129 35.0197 129.975 36.2728 130.972 37.7771C132.214 39.6535 132.517 41.9199 131.757 44.3981C130.61 48.1375 125.858 52.9457 124.433 54.7424C118.691 61.912 112.518 68.5977 106.771 75.6847C104.395 78.6136 102.09 81.6084 99.9323 84.7481C99.4671 85.4253 97.3136 88.1316 95.8151 90.9076C95.7107 91.1007 95.6047 91.3206 95.5037 91.5499C96.4019 91.2477 97.2764 90.7246 98.1343 90.1417C101.689 87.7254 104.817 83.9414 107.176 81.6114C113.788 75.0703 120.102 68.0781 126.859 61.6076C131.527 57.137 136.397 52.903 141.747 49.2526C144.832 47.0483 153.229 41.535 159.971 39.7578C165.24 38.3691 169.677 39.4389 172.402 42.7559C174.59 45.4142 174.85 49.2242 173.647 53.398C171.967 59.227 166.886 65.9683 164.812 68.3928C160.858 72.9053 156.603 77.2121 152.03 81.2291C145.578 86.8963 138.626 92.055 132.599 98.081C130.189 100.491 127.888 102.993 125.801 105.688C124.773 107.03 120.987 111.582 118.32 116.199C117.591 117.461 117.441 119.199 117.122 120.415C117.552 120.329 117.996 120.206 118.434 120.106C120.791 119.572 123.1 118.45 124.692 117.578C130.516 114.387 135.313 111.35 139.802 107.836C144.197 104.397 148.273 100.483 152.763 95.5503L163.978 84.7481C170.862 77.8172 179.139 86.3769 172.646 92.9771L161.718 103.686C156.562 109.006 151.88 113.186 146.89 116.863C141.828 120.592 136.467 123.823 129.951 127.168C127.117 128.627 122.728 130.443 118.605 130.887C114.7 131.307 111.017 130.581 108.255 128.323C105.759 126.284 104.635 122.73 105.931 118.162C107.786 111.622 115.197 101.531 116.804 99.2893C120.12 94.5383 123.958 90.2104 128.065 86.0979C133.519 80.6375 139.315 75.4269 145.19 70.377C148.944 67.1504 152.81 64.0993 156.293 60.6676C157.38 59.6092 159.487 57.3957 161.318 54.8055C162.362 53.3292 163.383 51.7735 163.978 50.241C164.172 49.7406 164.37 49.2679 164.438 48.8C164.563 47.9432 163.762 48.2249 162.988 48.1611C161.315 48.3429 159.444 48.9072 157.591 49.6644C152.948 51.5612 148.4 54.4682 146.372 55.8009C141.402 59.2016 136.863 63.1303 132.551 67.3171C125.877 73.7994 119.728 80.8726 113.236 87.4607C110.118 90.6322 105.692 95.9439 100.804 98.5695C97.8362 100.163 94.6895 100.853 91.4989 100.28C87.5652 99.5755 86.0381 97.1792 85.8403 94.0493C85.7379 92.4268 86.2313 90.3597 87.1801 88.2416C88.7957 84.6351 91.7663 80.69 92.3559 79.8009C94.5954 76.4246 96.988 73.1943 99.468 70.0424C104.752 63.3262 110.437 56.9739 115.773 50.2415C110.487 53.8283 102.28 61.2486 95.8896 65.0704C92.4894 67.1037 89.3826 68.1843 87.1166 68.1645C83.1113 68.1294 81.1903 66.1986 80.2881 63.8076C79.8165 62.5577 79.6648 61.0282 79.9215 59.4054C80.2899 57.0775 81.4806 54.4726 82.4363 52.986C84.198 50.2543 88.9832 45.1896 92.4956 40.2847C93.6528 38.6686 95.8896 36.4588 95.277 35.6369C94.6644 34.815 83.1069 41.4122 83.1069 41.4122C82.4384 41.8041 81.4105 42.4823 80.4229 42.9365C80.1831 43.0929 79.9165 43.2325 79.6219 43.3514C78.837 43.6683 77.4394 43.7172 76.9443 43.6674Z" fill="#3775EE"/>
<path d="M315.072 17.8506C315.372 16.6124 314.94 16.1171 314.22 16.8751C312.524 18.6593 309.208 21.918 308.064 23.507C306.627 25.5187 307.378 25.9431 309.343 25.8736C312.802 25.7419 315.831 26.1455 317.678 26.0578C320.186 25.9388 320.108 24.2003 318.527 23.9547C317.194 23.7476 310.474 23.413 310.173 23.5402C309.728 23.7386 314.769 19.115 315.072 17.8506Z" fill="#3775EE"/>
<path d="M315.555 19.3977C314.973 19.8694 314.555 20.2328 314.28 20.538C312.442 22.5542 315.117 22.4748 315.713 22.5139C317.354 22.6349 320.948 22.417 321.13 22.1911C321.833 21.2832 320.212 20.7771 316.714 20.8092C316.353 20.8066 316.478 20.6922 317.781 19.7973C319.387 18.6816 319.706 18.2628 319.575 17.4663C319.416 16.5984 318.447 17.0633 315.555 19.3977Z" fill="#3775EE"/>
<path fill-rule="evenodd" clip-rule="evenodd" d="M275.545 155.191C338.248 151.791 389.418 194.406 432.244 234.265C473.205 272.386 500.828 318.27 506.501 370.14C512.848 428.174 509.791 490.955 465.078 534.486C418.53 579.804 345.53 594.506 275.545 594.989C204.923 595.477 134.129 579.344 82.969 537.126C30.6348 493.938 -8.62786 431.958 3.07765 370.14C13.8958 313.008 87.9007 289.218 137.289 250.256C182.516 214.577 214.521 158.499 275.545 155.191Z" stroke="#3775EE" stroke-dasharray="12 12"/>
<path fill-rule="evenodd" clip-rule="evenodd" d="M105.102 168.207C86.0638 179.748 82.8568 181.12 75.3633 174.345C77.2214 180.819 76.3725 185.528 72.9092 190.344C81.4809 187.731 83.0446 190.118 87.3957 193.105C84.7175 184.65 88.4735 181.868 105.102 168.207Z" stroke="#3775EE" stroke-width="5" stroke-miterlimit="1.5" stroke-linecap="round" stroke-linejoin="round"/>
<path d="M97.9561 185.4C98.228 186.288 98.3358 187.231 98.5106 188.142" stroke="#3775EE" stroke-width="5" stroke-miterlimit="1.5" stroke-linecap="round" stroke-linejoin="round"/>
<path d="M94.375 191.125C95.0804 191.017 95.7928 190.816 96.4902 190.654" stroke="#3775EE" stroke-width="5" stroke-miterlimit="1.5" stroke-linecap="round" stroke-linejoin="round"/>
<path d="M99.3653 192.321C99.3629 193.193 99.5192 194.321 99.7935 195.162" stroke="#3775EE" stroke-width="5" stroke-miterlimit="1.5" stroke-linecap="round" stroke-linejoin="round"/>
<path d="M101.615 189.807C102.556 189.883 103.547 189.504 104.487 189.387" stroke="#3775EE" stroke-width="5" stroke-miterlimit="1.5" stroke-linecap="round" stroke-linejoin="round"/>
<path d="M80.8711 160.589C80.9728 161.585 81.1417 162.569 81.3395 163.549" stroke="#3775EE" stroke-width="5" stroke-miterlimit="1.5" stroke-linecap="round" stroke-linejoin="round"/>
<path d="M76.9561 166.177C77.7016 166.111 78.4156 166.018 79.1498 165.884" stroke="#3775EE" stroke-width="5" stroke-miterlimit="1.5" stroke-linecap="round" stroke-linejoin="round"/>
<path d="M82.1279 167.681C82.1434 168.613 82.3291 169.604 82.5182 170.52" stroke="#3775EE" stroke-width="5" stroke-miterlimit="1.5" stroke-linecap="round" stroke-linejoin="round"/>
<path d="M84.4824 165.13C85.3311 164.919 86.1164 164.633 86.9942 164.532" stroke="#3775EE" stroke-width="5" stroke-miterlimit="1.5" stroke-linecap="round" stroke-linejoin="round"/>
<path d="M241.578 20.3191C241.596 21.3234 241.665 22.323 241.728 23.3249" stroke="#3775EE" stroke-width="5" stroke-miterlimit="1.5" stroke-linecap="round" stroke-linejoin="round"/>
<path d="M237.5 25.6098C238.208 25.5906 238.91 25.5313 239.616 25.4917" stroke="#3775EE" stroke-width="5" stroke-miterlimit="1.5" stroke-linecap="round" stroke-linejoin="round"/>
<path d="M243.868 25.5953C244.486 25.4789 245.102 25.3608 245.718 25.2349" stroke="#3775EE" stroke-width="5" stroke-miterlimit="1.5" stroke-linecap="round" stroke-linejoin="round"/>
<path d="M242.087 27.6965C242.016 28.6719 241.942 29.7052 242.057 30.6832" stroke="#3775EE" stroke-width="5" stroke-miterlimit="1.5" stroke-linecap="round" stroke-linejoin="round"/>
<path d="M247.749 43.7625C248.291 43.7106 248.859 43.7069 249.396 43.6055" stroke="#3775EE" stroke-width="5" stroke-miterlimit="1.5" stroke-linecap="round" stroke-linejoin="round"/>
<path d="M251.649 38.0221C251.577 39.021 251.699 40.015 251.724 41.0147" stroke="#3775EE" stroke-width="5" stroke-miterlimit="1.5" stroke-linecap="round" stroke-linejoin="round"/>
<path d="M251.763 45.8105C251.759 46.7862 251.684 47.9193 251.863 48.8841" stroke="#3775EE" stroke-width="5" stroke-miterlimit="1.5" stroke-linecap="round" stroke-linejoin="round"/>
<path d="M254.714 43.428C255.478 43.3966 256.213 43.3287 256.969 43.2241" stroke="#3775EE" stroke-width="5" stroke-miterlimit="1.5" stroke-linecap="round" stroke-linejoin="round"/>
<path d="M256.591 11C256.654 12.0219 256.746 13.0389 256.772 14.0628" stroke="#3775EE" stroke-width="5" stroke-miterlimit="1.5" stroke-linecap="round" stroke-linejoin="round"/>
<path d="M252.08 17.3555C252.873 17.2382 253.675 17.1992 254.464 17.0861" stroke="#3775EE" stroke-width="5" stroke-miterlimit="1.5" stroke-linecap="round" stroke-linejoin="round"/>
<path d="M257.11 19.2191C257.29 20.5108 257.323 21.9776 257.683 23.2374" stroke="#3775EE" stroke-width="5" stroke-miterlimit="1.5" stroke-linecap="round" stroke-linejoin="round"/>
<path d="M260.049 16.5241C260.83 16.4357 261.611 16.421 262.393 16.353" stroke="#3775EE" stroke-width="5" stroke-miterlimit="1.5" stroke-linecap="round" stroke-linejoin="round"/>
</svg>
