<svg width="502" height="463" viewBox="0 0 502 463" fill="none" xmlns="http://www.w3.org/2000/svg">
<path fill-rule="evenodd" clip-rule="evenodd" d="M229.852 27.184C177.517 23.908 134.809 64.9734 99.0638 103.382C64.8764 140.118 41.8204 184.333 37.0857 234.317C31.7884 290.24 34.3398 350.739 71.6595 392.687C110.511 436.356 171.44 450.524 229.852 450.99C288.797 451.46 347.885 435.913 390.585 395.23C434.265 353.613 467.036 293.887 457.266 234.317C448.237 179.263 386.469 156.338 345.247 118.792C307.499 84.4104 280.786 30.3722 229.852 27.184Z" fill="#D0E0FF"/>
<path d="M17.8229 11.8595C14.0345 11.4793 14.4575 9.07767 16.7531 6.73028C21.1671 2.21648 27.245 0.319462 31.599 0.0207092C34.4337 -0.173849 36.3506 1.00271 37.0761 3.5398C37.632 5.48401 36.9093 8.25114 35.175 11.1347C32.8021 15.0798 28.6001 19.5533 27.2103 21.7975C27.1514 21.8922 27.088 22.0237 27.0256 22.1774C27.8387 21.6995 28.749 21.0267 29.7453 20.3229C34.6859 16.8332 40.473 11.5606 43.6674 9.78047C44.5275 9.30347 50.0363 6.15569 52.389 5.91645C54.4553 5.70633 55.7766 6.59796 56.4895 7.66834C57.3787 9.00348 57.5956 10.6161 57.0516 12.3794C56.2307 15.0401 52.83 18.4614 51.8097 19.7398C47.7005 24.8412 43.2823 29.5984 39.1691 34.6411C37.4692 36.7251 35.819 38.856 34.275 41.09C33.9421 41.5718 32.4009 43.4975 31.3285 45.4727C31.2537 45.6101 31.1779 45.7666 31.1056 45.9298C31.7484 45.7147 32.3743 45.3425 32.9883 44.9277C35.5322 43.2085 37.7708 40.516 39.4596 38.8581C44.1914 34.2039 48.7103 29.2287 53.5459 24.6246C56.8869 21.4436 60.3721 18.431 64.2012 15.8335C66.4093 14.2651 72.4189 10.3422 77.2441 9.07767C81.0146 8.08957 84.1901 8.85075 86.141 11.211C87.7065 13.1024 87.8925 15.8134 87.0316 18.7832C85.8292 22.9307 82.193 27.7275 80.7085 29.4526C77.8791 32.6634 74.8332 35.7279 71.5605 38.5861C66.9432 42.6186 61.9679 46.2891 57.6544 50.5769C55.9297 52.2916 54.2823 54.0717 52.7886 55.9898C52.0531 56.9448 49.3439 60.183 47.4352 63.4684C46.9134 64.3667 46.8061 65.6032 46.5773 66.4684C46.8851 66.4074 47.2029 66.3195 47.5167 66.2487C49.2031 65.8683 50.8556 65.0699 51.9951 64.4499C56.1636 62.1793 59.5966 60.0182 62.8096 57.518C65.9545 55.0708 68.8722 52.2858 72.0851 48.7762L80.1116 41.09C85.0383 36.1584 90.9626 42.249 86.3152 46.9453L78.4941 54.565C74.8042 58.3504 71.4532 61.3247 67.8819 63.9406C64.259 66.5944 60.4223 68.8933 55.7594 71.2733C53.7305 72.3115 50.5894 73.6038 47.6389 73.9195C44.8441 74.2184 42.2082 73.7015 40.2313 72.0955C38.445 70.6442 37.6408 68.1155 38.5681 64.8655C39.896 60.2115 45.1999 53.0318 46.3497 51.4366C48.7229 48.0561 51.47 44.9767 54.4096 42.0504C58.3126 38.1651 62.4605 34.4576 66.6654 30.8644C69.352 28.5686 72.1186 26.3976 74.6113 23.9558C75.3898 23.2027 76.8977 21.6277 78.2082 19.7847C78.9551 18.7342 79.6862 17.6273 80.1116 16.5368C80.2505 16.1808 80.3919 15.8445 80.441 15.5115C80.5304 14.9019 79.957 15.1023 79.4032 15.0569C78.2059 15.1863 76.8668 15.5878 75.5405 16.1266C72.218 17.4763 68.9631 19.5447 67.5116 20.493C63.9541 22.9127 60.7055 25.7081 57.6202 28.6872C52.8432 33.2996 48.4423 38.3324 43.7965 43.0201C41.5646 45.2768 38.3973 49.0563 34.8987 50.9244C32.7749 52.0585 30.5229 52.5491 28.2394 52.1417C25.4241 51.6403 24.3312 49.9352 24.1896 47.7082C24.1163 46.5537 24.4695 45.0828 25.1485 43.5758C26.3048 41.0096 28.4308 38.2025 28.8528 37.5699C30.4555 35.1675 32.1679 32.869 33.9428 30.6263C37.7247 25.8475 41.7929 21.3276 45.6122 16.5372C41.8288 19.0894 35.9553 24.3692 31.3818 27.0885C28.9483 28.5353 26.7248 29.3042 25.103 29.2902C22.2365 29.2651 20.8617 27.8913 20.216 26.1901C19.8785 25.3007 19.7699 24.2124 19.9536 23.0577C20.2172 21.4013 21.0694 19.5478 21.7534 18.49C23.0142 16.5463 26.439 12.9426 28.9527 9.4526C29.781 8.30268 31.3818 6.73028 30.9434 6.14549C30.5049 5.56069 22.2334 10.2549 22.2334 10.2549C21.755 10.5337 21.0193 11.0163 20.3125 11.3394C20.1409 11.4507 19.95 11.55 19.7392 11.6347C19.1774 11.8601 18.1772 11.895 17.8229 11.8595Z" fill="#3775EE"/>
<path d="M328.662 33.2317C347.292 28.898 369.99 34.2046 383.986 40.4507C410.369 52.2245 436.087 75.6986 447.653 97.2576C461.573 123.204 464.001 154.696 448.638 184.629C438.712 203.968 414.243 214.033 394.202 202.41C373.883 190.625 353.608 170.449 368.412 147.684C383.993 123.723 412.546 114.714 440.375 124.007C483.685 138.47 500.022 172.872 500.59 209.257C501.198 248.167 479.166 284.227 445.908 318.138" stroke="#3775EE" stroke-linecap="round" stroke-linejoin="round" stroke-dasharray="6 6"/>
<circle cx="30" cy="243" r="12" fill="#3775EE"/>
<path fill-rule="evenodd" clip-rule="evenodd" d="M46.1018 168.207C27.0638 179.748 23.8568 181.12 16.3633 174.345C18.2214 180.819 17.3725 185.528 13.9092 190.344C22.4809 187.731 24.0446 190.118 28.3957 193.105C25.7175 184.65 29.4735 181.868 46.1018 168.207Z" stroke="#3775EE" stroke-width="5" stroke-miterlimit="1.5" stroke-linecap="round" stroke-linejoin="round"/>
<path d="M38.9561 185.4C39.228 186.288 39.3358 187.231 39.5106 188.142" stroke="#3775EE" stroke-width="5" stroke-miterlimit="1.5" stroke-linecap="round" stroke-linejoin="round"/>
<path d="M35.375 191.125C36.0804 191.017 36.7928 190.816 37.4902 190.654" stroke="#3775EE" stroke-width="5" stroke-miterlimit="1.5" stroke-linecap="round" stroke-linejoin="round"/>
<path d="M40.3653 192.321C40.3629 193.193 40.5192 194.321 40.7935 195.162" stroke="#3775EE" stroke-width="5" stroke-miterlimit="1.5" stroke-linecap="round" stroke-linejoin="round"/>
<path d="M42.6152 189.807C43.5559 189.883 44.5468 189.504 45.4868 189.387" stroke="#3775EE" stroke-width="5" stroke-miterlimit="1.5" stroke-linecap="round" stroke-linejoin="round"/>
<path d="M21.8711 160.589C21.9728 161.585 22.1417 162.569 22.3395 163.549" stroke="#3775EE" stroke-width="5" stroke-miterlimit="1.5" stroke-linecap="round" stroke-linejoin="round"/>
<path d="M17.9561 166.177C18.7016 166.111 19.4156 166.018 20.1498 165.884" stroke="#3775EE" stroke-width="5" stroke-miterlimit="1.5" stroke-linecap="round" stroke-linejoin="round"/>
<path d="M23.1279 167.681C23.1434 168.613 23.3291 169.604 23.5182 170.52" stroke="#3775EE" stroke-width="5" stroke-miterlimit="1.5" stroke-linecap="round" stroke-linejoin="round"/>
<path d="M25.4824 165.13C26.3311 164.919 27.1164 164.633 27.9942 164.532" stroke="#3775EE" stroke-width="5" stroke-miterlimit="1.5" stroke-linecap="round" stroke-linejoin="round"/>
<path d="M182.578 20.3191C182.596 21.3234 182.665 22.323 182.728 23.3249" stroke="#3775EE" stroke-width="5" stroke-miterlimit="1.5" stroke-linecap="round" stroke-linejoin="round"/>
<path d="M178.5 25.6098C179.208 25.5906 179.91 25.5313 180.616 25.4917" stroke="#3775EE" stroke-width="5" stroke-miterlimit="1.5" stroke-linecap="round" stroke-linejoin="round"/>
<path d="M184.868 25.5952C185.486 25.4788 186.102 25.3607 186.718 25.2348" stroke="#3775EE" stroke-width="5" stroke-miterlimit="1.5" stroke-linecap="round" stroke-linejoin="round"/>
<path d="M183.087 27.6965C183.016 28.6719 182.942 29.7052 183.057 30.6832" stroke="#3775EE" stroke-width="5" stroke-miterlimit="1.5" stroke-linecap="round" stroke-linejoin="round"/>
<path d="M188.749 43.7625C189.291 43.7106 189.859 43.7069 190.396 43.6055" stroke="#3775EE" stroke-width="5" stroke-miterlimit="1.5" stroke-linecap="round" stroke-linejoin="round"/>
<path d="M192.649 38.0221C192.577 39.021 192.699 40.015 192.724 41.0147" stroke="#3775EE" stroke-width="5" stroke-miterlimit="1.5" stroke-linecap="round" stroke-linejoin="round"/>
<path d="M192.763 45.8106C192.759 46.7862 192.684 47.9193 192.863 48.8842" stroke="#3775EE" stroke-width="5" stroke-miterlimit="1.5" stroke-linecap="round" stroke-linejoin="round"/>
<path d="M195.714 43.4279C196.478 43.3965 197.213 43.3286 197.969 43.2241" stroke="#3775EE" stroke-width="5" stroke-miterlimit="1.5" stroke-linecap="round" stroke-linejoin="round"/>
<path d="M197.591 11C197.654 12.0219 197.746 13.0389 197.772 14.0628" stroke="#3775EE" stroke-width="5" stroke-miterlimit="1.5" stroke-linecap="round" stroke-linejoin="round"/>
<path d="M193.08 17.3555C193.873 17.2382 194.675 17.1992 195.464 17.0861" stroke="#3775EE" stroke-width="5" stroke-miterlimit="1.5" stroke-linecap="round" stroke-linejoin="round"/>
<path d="M198.11 19.2191C198.29 20.5108 198.323 21.9776 198.683 23.2374" stroke="#3775EE" stroke-width="5" stroke-miterlimit="1.5" stroke-linecap="round" stroke-linejoin="round"/>
<path d="M201.049 16.524C201.83 16.4357 202.611 16.4209 203.393 16.353" stroke="#3775EE" stroke-width="5" stroke-miterlimit="1.5" stroke-linecap="round" stroke-linejoin="round"/>
<circle cx="195" cy="448" r="7" fill="#3775EE"/>
<circle cx="259" cy="438" r="25" fill="#C2C2F1"/>
</svg>
