<svg width="637" height="657" viewBox="0 0 637 657" fill="none" xmlns="http://www.w3.org/2000/svg">
<path fill-rule="evenodd" clip-rule="evenodd" d="M365.113 62.0225C395.475 61.0263 414.069 93.3266 433.984 116.267C451.854 136.851 473.003 157.898 471.994 185.139C471.006 211.811 446.269 228.685 429.066 249.092C409.042 272.845 396.113 313.977 365.113 311.926C333.905 309.861 331.058 263.424 309.097 241.154C287.47 219.223 242.244 215.864 240.082 185.139C237.93 154.563 278.776 142.149 300.617 120.643C322.137 99.4528 334.928 63.0129 365.113 62.0225Z" fill="#3775EE"/>
<circle cx="62.5" cy="372.5" r="62.5" fill="#3775EE"/>
<circle cx="303.5" cy="49.5" r="12.5" fill="#3775EE"/>
<circle cx="356" cy="25" r="25" fill="#3775EE"/>
<circle cx="206.5" cy="540.5" r="116.5" fill="#3775EE"/>
<circle cx="187.5" cy="230.5" r="116.5" fill="#3775EE"/>
<path fill-rule="evenodd" clip-rule="evenodd" d="M582.956 404.793C589.856 460.031 657.745 509.82 630.336 558.303C603.257 606.203 530.494 590.062 475.607 594.681C421.172 599.263 358.808 621.142 318.292 584.566C278.156 548.335 291.378 484.549 293.817 430.57C295.816 386.317 304.097 343.566 330.779 308.169C359.076 270.629 397.123 241.292 443.297 232.262C494.797 222.191 559.712 216.206 592.694 256.952C625.01 296.875 576.592 353.849 582.956 404.793Z" fill="#3775EE"/>
</svg>
